<svg xmlns="http://www.w3.org/2000/svg" version="1.1" xmlns:xlink="http://www.w3.org/1999/xlink" xmlns:svgjs="http://svgjs.dev/svgjs" width="1000" height="1000" viewBox="0 0 1000 1000"><g transform="matrix(1,0,0,1,-0.14221556886212738,-0.14221556886229791)"><svg viewBox="0 0 334 334" data-background-color="#50a060" preserveAspectRatio="xMidYMid meet" height="1000" width="1000" xmlns="http://www.w3.org/2000/svg" xmlns:xlink="http://www.w3.org/1999/xlink"><g id="tight-bounds" transform="matrix(1,0,0,1,0.04749999999998522,0.04750000000001364)"><svg viewBox="0 0 333.90454557049503 333.90454557049503" height="333.90454557049503" width="333.90454557049503"><g><svg></svg></g><g><svg viewBox="0 0 333.90454557049503 333.90454557049503" height="333.90454557049503" width="333.90454557049503"><g><path d="M0 166.952c0-92.205 74.747-166.952 166.952-166.952 92.205 0 166.952 74.747 166.953 166.952 0 92.205-74.747 166.952-166.953 166.953-92.205 0-166.952-74.747-166.952-166.953zM166.952 322.431c85.869 0 155.479-69.61 155.479-155.479 0-85.869-69.61-155.479-155.479-155.479-85.869 0-155.479 69.61-155.479 155.479 0 85.869 69.61 155.479 155.479 155.479z" data-fill-palette-color="tertiary" fill="#454545" stroke="transparent"></path><ellipse rx="160.27418187383762" ry="160.27418187383762" cx="166.95227278524752" cy="166.95227278524752" fill="#454545" stroke="transparent" stroke-width="0" fill-opacity="1" data-fill-palette-color="tertiary"></ellipse></g><g transform="matrix(1,0,0,1,108.604563157272,71.17305217166896)"><svg viewBox="0 0 116.69541925595105 191.55844122715712" height="191.55844122715712" width="116.69541925595105"><g><svg viewBox="0 0 116.69541925595105 191.55844122715712" height="191.55844122715712" width="116.69541925595105"><g><svg viewBox="0 0 175.7071817146715 288.42772112464786" height="191.55844122715712" width="116.69541925595105"><g transform="matrix(1,0,0,1,0,96.86927989749071)"><svg viewBox="0 0 175.7071817146715 191.55844122715712" height="191.55844122715712" width="175.7071817146715"><g id="textblocktransform"><svg viewBox="0 0 175.7071817146715 191.55844122715712" height="191.55844122715712" width="175.7071817146715" id="textblock"><g><svg viewBox="0 0 175.7071817146715 191.55844122715712" height="191.55844122715712" width="175.7071817146715"><g transform="matrix(1,0,0,1,0,0)"><svg width="175.7071817146715" viewBox="0.20000000298023224 -35 32.70000076293945 35.650001525878906" height="191.55844122715712" data-palette-color="#ffffff"><path d="M16.5 0.65L16.5 0.65Q15.2 0.65 14.3-0.18 13.4-1 12.7-2.8L12.7-2.8 0.2-35 2.8-35 14.65-3.75Q15-2.8 15.38-2.2 15.75-1.6 16.5-1.6L16.5-1.6Q17.25-1.6 17.63-2.2 18-2.8 18.4-3.75L18.4-3.75 30.35-35 32.9-35 20.35-2.8Q19.65-0.95 18.75-0.15 17.85 0.65 16.5 0.65Z" opacity="1" transform="matrix(1,0,0,1,0,0)" fill="#ffffff" class="undefined-text-0" data-fill-palette-color="quaternary" id="text-0"></path></svg></g></svg></g></svg></g></svg></g><g transform="matrix(1,0,0,1,33.56007170750226,0)"><svg viewBox="0 0 108.58703829966697 51.64692932634836" height="51.64692932634836" width="108.58703829966697"><g><svg xmlns="http://www.w3.org/2000/svg" xmlns:xlink="http://www.w3.org/1999/xlink" version="1.1" x="0" y="0" viewBox="1.9289979934692383 24.48706817626953 96.19499206542969 45.75293731689453" enable-background="new 0 0 100 100" xml:space="preserve" height="51.64692932634836" width="108.58703829966697" class="icon-icon-0" data-fill-palette-color="quaternary" id="icon-0"><path fill="#ffffff" d="M83.748 41.479c-1.621 0-3.182 0.273-4.641 0.773l-0.932-1.688c1.764-0.642 3.645-0.986 5.572-0.986 1.033 0 1.869-0.836 1.869-1.867 0-1.033-0.836-1.867-1.869-1.867-2.572 0-5.08 0.492-7.406 1.416l-0.568-1.023c0.303 0.062 0.611 0.119 0.93 0.168 0.096 0.017 0.193 0.023 0.289 0.023 0.441 0 0.871-0.156 1.215-0.449 0.414-0.354 0.652-0.875 0.652-1.418V27.6c0-0.545-0.238-1.062-0.652-1.418s-0.963-0.512-1.504-0.426c-3.904 0.609-6.502 2.084-7.277 4.051l-0.291 0.068c-1.379-2.717-4.312-4.602-7.709-4.602-0.529 0-1.07 0.051-1.611 0.148-0.408-0.703-1.246-1.086-2.074-0.877l-4.291 1.104c-0.781 0.201-1.311 0.869-1.387 1.627l-9.102 2.199c-2.42 0.438-4.295 2.144-4.927 4.31-0.015 0.016-0.03 0.027-0.044 0.041-1.242 1.328-4.29 2.413-8.291 1.844-2.518-0.359-4.81-1.324-6.287-2.646-0.77-0.689-1.949-0.625-2.639 0.143-0.377 0.424-0.52 0.969-0.451 1.488-1.301-0.244-2.642-0.375-4.012-0.375-1.033 0-1.869 0.836-1.869 1.867 0 1.033 0.836 1.869 1.869 1.869 8.438 0 15.572 5.877 17.298 13.947l-3.325 0.357c-1.528-6.295-7.211-10.986-13.973-10.986-7.93 0-14.381 6.449-14.381 14.377 0 7.932 6.451 14.383 14.381 14.383 7.82 0 14.197-6.275 14.372-14.055l6.606-0.711c0.624 0.762 1.43 1.375 2.352 1.764 0.848 0.43 1.803 0.678 2.816 0.678h11.328c2.65 0 4.805-2.156 4.805-4.805 0-2.295-1.619-4.262-3.861-4.711 0 0-10.979-2.854-11.048-2.863-0.409-0.082-0.819-0.123-1.225-0.123-0.655 0-1.286 0.101-1.88 0.289-0.535 0.129-1.04 0.338-1.512 0.598l1.35-5.899c1.051 0.728 2.338 1.164 3.736 1.164h17.273c4.648 0 8.438-3.527 8.539-7.9l0.025-0.004 3.025 5.453c-1.732 1.104-3.312 2.479-4.662 4.104-0.658 0.793-0.551 1.971 0.242 2.629 0.348 0.289 0.773 0.434 1.193 0.434 0.537 0 1.068-0.232 1.436-0.676 1.051-1.262 2.27-2.338 3.607-3.213l0.926 1.664c-3.85 2.584-6.389 6.977-6.389 11.951 0 7.928 6.451 14.379 14.379 14.379 7.93 0 14.381-6.451 14.381-14.379C98.127 47.931 91.68 41.479 83.748 41.479zM16.312 66.355c-5.869 0-10.646-4.774-10.646-10.646 0-5.867 4.775-10.644 10.646-10.644 4.832 0 8.922 3.24 10.215 7.658l-4.263 0.463c-0.985-2.315-3.281-3.94-5.952-3.94-3.563 0-6.465 2.899-6.465 6.463 0 3.565 2.899 6.467 6.465 6.467 3.158 0 5.789-2.274 6.351-5.271l4.266-0.461C26.55 61.971 21.935 66.355 16.312 66.355zM19.041 55.709c0 1.508-1.227 2.732-2.729 2.732-1.506 0-2.729-1.226-2.729-2.732 0-1.504 1.224-2.729 2.729-2.729C17.815 52.98 19.041 54.205 19.041 55.709zM35.32 45.781c-1.255-2.41-2.949-4.537-4.974-6.289 0.504 0.041 1.006 0.065 1.498 0.065 1.842 0 3.571-0.282 5.085-0.817L35.32 45.781zM47.99 50.355l5.857 1.527c0.043 0.01 0.086 0.021 0.133 0.031 0.508 0.09 0.877 0.531 0.877 1.049 0 0.588-0.48 1.068-1.07 1.068h-6.265c0.363-0.779 0.572-1.644 0.572-2.56C48.095 51.092 48.056 50.721 47.99 50.355zM42.001 49.115c1.301 0 2.356 1.057 2.356 2.356s-1.057 2.357-2.356 2.357c-1.298 0-2.355-1.06-2.355-2.357C39.646 50.172 40.703 49.115 42.001 49.115zM61.426 37.68H44.152c-1.439 0-2.609-1.025-2.609-2.289 0-1.09 0.889-2.035 2.113-2.246 0.041-0.006 16.578-4.002 16.578-4.002 0.035-0.004 0.064-0.012 0.098-0.018 0.379-0.078 0.736-0.119 1.094-0.119 1.598 0 3.014 0.709 3.891 1.793l-3.9 0.941c-1 0.244-1.615 1.254-1.375 2.256 0.242 1.002 1.252 1.619 2.258 1.377l3.773-0.914C65.521 36.309 63.65 37.68 61.426 37.68zM75.123 32.219c-1.248-0.4-1.938-0.861-2.162-1.137 0.227-0.279 0.914-0.742 2.162-1.141V32.219zM83.748 66.502c-5.867 0-10.645-4.775-10.645-10.645 0-3.57 1.77-6.734 4.475-8.664l2.049 3.688c-1.43 1.187-2.344 2.976-2.344 4.976 0 3.563 2.898 6.465 6.467 6.465 3.562 0 6.467-2.9 6.467-6.465 0-3.566-2.902-6.468-6.467-6.468-0.225 0-0.441 0.013-0.658 0.033l-2.129-3.838c0.889-0.242 1.822-0.373 2.787-0.373 5.871 0 10.645 4.772 10.645 10.646C94.395 61.727 89.619 66.502 83.748 66.502zM81.021 55.857c0-1.506 1.225-2.729 2.729-2.729 1.508 0 2.73 1.223 2.73 2.729s-1.223 2.729-2.73 2.729C82.244 58.586 81.021 57.363 81.021 55.857zM66.771 46.396c0.193 0.476 0.178 1.006-0.035 1.476l-0.914 1.989 0 0-3.605 7.853c-1.059 3.041-4.072 5.236-7.213 5.236l-19.336-0.005 0.002-3.733 19.334 0.004c1.586 0 3.178-1.196 3.703-2.78 0.021-0.066 3.812-8.334 3.812-8.334l-0.406-0.162c-0.957-0.384-1.428-1.47-1.045-2.427 0.383-0.961 1.467-1.43 2.426-1.045l2.234 0.89C66.203 45.545 66.58 45.92 66.771 46.396z" data-fill-palette-color="quaternary"></path></svg></g></svg></g><g></g></svg></g></svg></g></svg></g></svg></g><defs></defs></svg><rect width="333.90454557049503" height="333.90454557049503" fill="none" stroke="none" visibility="hidden"></rect></g></svg></g></svg>